<mxfile host="app.diagrams.net" modified="2022-04-26T17:50:31.522Z" agent="5.0 (Windows NT 10.0; Win64; x64) AppleWebKit/537.36 (KHTML, like Gecko) Chrome/100.0.4896.127 Safari/537.36" etag="mp1EqQrNM6QdUuqfL__9" version="17.4.6" type="github">
  <diagram id="C5RBs43oDa-KdzZeNtuy" name="Page-1">
    <mxGraphModel dx="1422" dy="762" grid="1" gridSize="10" guides="1" tooltips="1" connect="1" arrows="1" fold="1" page="1" pageScale="1" pageWidth="827" pageHeight="1169" math="0" shadow="0">
      <root>
        <mxCell id="WIyWlLk6GJQsqaUBKTNV-0" />
        <mxCell id="WIyWlLk6GJQsqaUBKTNV-1" parent="WIyWlLk6GJQsqaUBKTNV-0" />
        <mxCell id="pOmkMSWGpsrRwSI4IJYY-4" value="" style="edgeStyle=orthogonalEdgeStyle;rounded=0;orthogonalLoop=1;jettySize=auto;html=1;" edge="1" parent="WIyWlLk6GJQsqaUBKTNV-1" source="pOmkMSWGpsrRwSI4IJYY-2" target="pOmkMSWGpsrRwSI4IJYY-3">
          <mxGeometry relative="1" as="geometry" />
        </mxCell>
        <mxCell id="pOmkMSWGpsrRwSI4IJYY-14" value="" style="edgeStyle=orthogonalEdgeStyle;rounded=0;orthogonalLoop=1;jettySize=auto;html=1;" edge="1" parent="WIyWlLk6GJQsqaUBKTNV-1" source="pOmkMSWGpsrRwSI4IJYY-2" target="pOmkMSWGpsrRwSI4IJYY-13">
          <mxGeometry relative="1" as="geometry" />
        </mxCell>
        <mxCell id="pOmkMSWGpsrRwSI4IJYY-2" value="CAD" style="rounded=1;whiteSpace=wrap;html=1;" vertex="1" parent="WIyWlLk6GJQsqaUBKTNV-1">
          <mxGeometry x="340" y="80" width="120" height="60" as="geometry" />
        </mxCell>
        <mxCell id="pOmkMSWGpsrRwSI4IJYY-6" value="" style="edgeStyle=orthogonalEdgeStyle;rounded=0;orthogonalLoop=1;jettySize=auto;html=1;" edge="1" parent="WIyWlLk6GJQsqaUBKTNV-1" source="pOmkMSWGpsrRwSI4IJYY-3" target="pOmkMSWGpsrRwSI4IJYY-5">
          <mxGeometry relative="1" as="geometry" />
        </mxCell>
        <mxCell id="pOmkMSWGpsrRwSI4IJYY-16" value="" style="edgeStyle=orthogonalEdgeStyle;rounded=0;orthogonalLoop=1;jettySize=auto;html=1;" edge="1" parent="WIyWlLk6GJQsqaUBKTNV-1" source="pOmkMSWGpsrRwSI4IJYY-3" target="pOmkMSWGpsrRwSI4IJYY-15">
          <mxGeometry relative="1" as="geometry" />
        </mxCell>
        <mxCell id="pOmkMSWGpsrRwSI4IJYY-3" value="MESH" style="rounded=1;whiteSpace=wrap;html=1;" vertex="1" parent="WIyWlLk6GJQsqaUBKTNV-1">
          <mxGeometry x="340" y="220" width="120" height="60" as="geometry" />
        </mxCell>
        <mxCell id="pOmkMSWGpsrRwSI4IJYY-8" value="" style="edgeStyle=orthogonalEdgeStyle;rounded=0;orthogonalLoop=1;jettySize=auto;html=1;" edge="1" parent="WIyWlLk6GJQsqaUBKTNV-1" source="pOmkMSWGpsrRwSI4IJYY-5" target="pOmkMSWGpsrRwSI4IJYY-7">
          <mxGeometry relative="1" as="geometry" />
        </mxCell>
        <mxCell id="pOmkMSWGpsrRwSI4IJYY-18" value="" style="edgeStyle=orthogonalEdgeStyle;rounded=0;orthogonalLoop=1;jettySize=auto;html=1;" edge="1" parent="WIyWlLk6GJQsqaUBKTNV-1" source="pOmkMSWGpsrRwSI4IJYY-5" target="pOmkMSWGpsrRwSI4IJYY-17">
          <mxGeometry relative="1" as="geometry" />
        </mxCell>
        <mxCell id="pOmkMSWGpsrRwSI4IJYY-5" value="SCENARIO" style="rounded=1;whiteSpace=wrap;html=1;" vertex="1" parent="WIyWlLk6GJQsqaUBKTNV-1">
          <mxGeometry x="340" y="360" width="120" height="60" as="geometry" />
        </mxCell>
        <mxCell id="pOmkMSWGpsrRwSI4IJYY-10" value="" style="edgeStyle=orthogonalEdgeStyle;rounded=0;orthogonalLoop=1;jettySize=auto;html=1;" edge="1" parent="WIyWlLk6GJQsqaUBKTNV-1" source="pOmkMSWGpsrRwSI4IJYY-7" target="pOmkMSWGpsrRwSI4IJYY-9">
          <mxGeometry relative="1" as="geometry" />
        </mxCell>
        <mxCell id="pOmkMSWGpsrRwSI4IJYY-20" value="" style="edgeStyle=orthogonalEdgeStyle;rounded=0;orthogonalLoop=1;jettySize=auto;html=1;" edge="1" parent="WIyWlLk6GJQsqaUBKTNV-1" source="pOmkMSWGpsrRwSI4IJYY-7" target="pOmkMSWGpsrRwSI4IJYY-19">
          <mxGeometry relative="1" as="geometry" />
        </mxCell>
        <mxCell id="pOmkMSWGpsrRwSI4IJYY-7" value="RESULTS" style="rounded=1;whiteSpace=wrap;html=1;" vertex="1" parent="WIyWlLk6GJQsqaUBKTNV-1">
          <mxGeometry x="340" y="500" width="120" height="60" as="geometry" />
        </mxCell>
        <mxCell id="pOmkMSWGpsrRwSI4IJYY-12" value="" style="edgeStyle=orthogonalEdgeStyle;rounded=0;orthogonalLoop=1;jettySize=auto;html=1;" edge="1" parent="WIyWlLk6GJQsqaUBKTNV-1" source="pOmkMSWGpsrRwSI4IJYY-9" target="pOmkMSWGpsrRwSI4IJYY-11">
          <mxGeometry relative="1" as="geometry" />
        </mxCell>
        <mxCell id="pOmkMSWGpsrRwSI4IJYY-22" value="" style="edgeStyle=orthogonalEdgeStyle;rounded=0;orthogonalLoop=1;jettySize=auto;html=1;" edge="1" parent="WIyWlLk6GJQsqaUBKTNV-1" source="pOmkMSWGpsrRwSI4IJYY-9" target="pOmkMSWGpsrRwSI4IJYY-21">
          <mxGeometry relative="1" as="geometry" />
        </mxCell>
        <mxCell id="pOmkMSWGpsrRwSI4IJYY-9" value="DATA BASE" style="rounded=1;whiteSpace=wrap;html=1;" vertex="1" parent="WIyWlLk6GJQsqaUBKTNV-1">
          <mxGeometry x="340" y="640" width="120" height="60" as="geometry" />
        </mxCell>
        <mxCell id="pOmkMSWGpsrRwSI4IJYY-24" value="" style="edgeStyle=orthogonalEdgeStyle;rounded=0;orthogonalLoop=1;jettySize=auto;html=1;" edge="1" parent="WIyWlLk6GJQsqaUBKTNV-1" source="pOmkMSWGpsrRwSI4IJYY-11" target="pOmkMSWGpsrRwSI4IJYY-23">
          <mxGeometry relative="1" as="geometry" />
        </mxCell>
        <mxCell id="pOmkMSWGpsrRwSI4IJYY-26" value="" style="edgeStyle=orthogonalEdgeStyle;rounded=0;orthogonalLoop=1;jettySize=auto;html=1;" edge="1" parent="WIyWlLk6GJQsqaUBKTNV-1" source="pOmkMSWGpsrRwSI4IJYY-11" target="pOmkMSWGpsrRwSI4IJYY-25">
          <mxGeometry relative="1" as="geometry" />
        </mxCell>
        <mxCell id="pOmkMSWGpsrRwSI4IJYY-11" value="Quiery" style="rounded=1;whiteSpace=wrap;html=1;" vertex="1" parent="WIyWlLk6GJQsqaUBKTNV-1">
          <mxGeometry x="340" y="780" width="120" height="60" as="geometry" />
        </mxCell>
        <mxCell id="pOmkMSWGpsrRwSI4IJYY-13" value="CATIA" style="ellipse;whiteSpace=wrap;html=1;rounded=1;" vertex="1" parent="WIyWlLk6GJQsqaUBKTNV-1">
          <mxGeometry x="540" y="80" width="120" height="60" as="geometry" />
        </mxCell>
        <mxCell id="pOmkMSWGpsrRwSI4IJYY-15" value="PowerDELTA" style="ellipse;whiteSpace=wrap;html=1;rounded=1;" vertex="1" parent="WIyWlLk6GJQsqaUBKTNV-1">
          <mxGeometry x="540" y="220" width="120" height="60" as="geometry" />
        </mxCell>
        <mxCell id="pOmkMSWGpsrRwSI4IJYY-17" value="PowerCASE" style="ellipse;whiteSpace=wrap;html=1;rounded=1;" vertex="1" parent="WIyWlLk6GJQsqaUBKTNV-1">
          <mxGeometry x="540" y="360" width="120" height="60" as="geometry" />
        </mxCell>
        <mxCell id="pOmkMSWGpsrRwSI4IJYY-19" value="PowerVIZ" style="ellipse;whiteSpace=wrap;html=1;rounded=1;" vertex="1" parent="WIyWlLk6GJQsqaUBKTNV-1">
          <mxGeometry x="540" y="500" width="120" height="60" as="geometry" />
        </mxCell>
        <mxCell id="pOmkMSWGpsrRwSI4IJYY-21" value="MySQL" style="ellipse;whiteSpace=wrap;html=1;rounded=1;" vertex="1" parent="WIyWlLk6GJQsqaUBKTNV-1">
          <mxGeometry x="540" y="640" width="120" height="60" as="geometry" />
        </mxCell>
        <mxCell id="pOmkMSWGpsrRwSI4IJYY-23" value="MySQL" style="ellipse;whiteSpace=wrap;html=1;rounded=1;" vertex="1" parent="WIyWlLk6GJQsqaUBKTNV-1">
          <mxGeometry x="540" y="780" width="120" height="60" as="geometry" />
        </mxCell>
        <mxCell id="pOmkMSWGpsrRwSI4IJYY-25" value="External Loads" style="rounded=1;whiteSpace=wrap;html=1;" vertex="1" parent="WIyWlLk6GJQsqaUBKTNV-1">
          <mxGeometry x="340" y="920" width="120" height="60" as="geometry" />
        </mxCell>
      </root>
    </mxGraphModel>
  </diagram>
</mxfile>
